HIERARCHY
ROOT Hips
{
	OFFSET	0.00	0.00	0.00
	CHANNELS 6 Xposition Yposition Zposition Zrotation Xrotation Yrotation
	JOINT LeftUpLeg
	{
		OFFSET	 0.126116	-0.014019	-0.065224
		CHANNELS 3 Zrotation Xrotation Yrotation
		JOINT LeftLeg
		{
			OFFSET	 0.000000	 0.000000	 0.569914
			CHANNELS 3 Zrotation Xrotation Yrotation
			JOINT LeftFoot
			{
				OFFSET	 0.000000	 0.000000	 0.544423
				CHANNELS 3 Zrotation Xrotation Yrotation
				JOINT LeftToeBase
				{
					OFFSET	 0.000000	 0.000000	 0.207117
					CHANNELS 3 Zrotation Xrotation Yrotation
					End Site
					{
						OFFSET	 0.000000	 0.000000	 0.207117
					}
				}
			}
		}
	}
	JOINT RightUpLeg
	{
		OFFSET	-0.124023	-0.008373	-0.065224
		CHANNELS 3 Zrotation Xrotation Yrotation
		JOINT RightLeg
		{
			OFFSET	 0.000000	 0.000000	 0.570047
			CHANNELS 3 Zrotation Xrotation Yrotation
			JOINT RightFoot
			{
				OFFSET	 0.000000	 0.000000	 0.544354
				CHANNELS 3 Zrotation Xrotation Yrotation
				JOINT RightToeBase
				{
					OFFSET	 0.000000	 0.000000	 0.207540
					CHANNELS 3 Zrotation Xrotation Yrotation
					End Site
					{
						OFFSET	 0.000000	 0.000000	 0.207540
					}
				}
			}
		}
	}
	JOINT Spine
	{
		OFFSET	 0.000184	-0.007763	 0.117403
		CHANNELS 3 Zrotation Xrotation Yrotation
		JOINT Spine1
		{
			OFFSET	 0.000000	 0.000000	 0.137269
			CHANNELS 3 Zrotation Xrotation Yrotation
			JOINT Spine2
			{
				OFFSET	 0.000000	 0.000000	 0.156879
				CHANNELS 3 Zrotation Xrotation Yrotation
				JOINT LeftShoulder
				{
					OFFSET	 0.080501	-0.002496	 0.160144
					CHANNELS 3 Zrotation Xrotation Yrotation
					JOINT LeftArm
					{
						OFFSET	 0.000000	 0.000000	 0.164363
						CHANNELS 3 Zrotation Xrotation Yrotation
						JOINT LeftForeArm
						{
							OFFSET	 0.000000	 0.000000	 0.364576
							CHANNELS 3 Zrotation Xrotation Yrotation
							JOINT LeftHand
							{
								OFFSET	 0.000000	 0.000000	 0.360812
								CHANNELS 3 Zrotation Xrotation Yrotation
								JOINT LeftHandIndex1
								{
									OFFSET	 0.000000	 0.000000	 0.086006
									CHANNELS 3 Zrotation Xrotation Yrotation
									JOINT LeftHandIndex2
									{
										OFFSET	 0.000000	 0.000000	 0.047236
										CHANNELS 3 Zrotation Xrotation Yrotation
										JOINT LeftHandIndex3
										{
											OFFSET	-0.004284	-0.000551	 0.038166
											CHANNELS 3 Zrotation Xrotation Yrotation
											End Site
											{
												OFFSET	-0.004284	-0.000551	 0.038166
											}
										}
									}
								}
							}
						}
					}
				}
				JOINT Neck
				{
					OFFSET	 0.000000	 0.000000	 0.176489
					CHANNELS 3 Zrotation Xrotation Yrotation
					JOINT Head
					{
						OFFSET	 0.000000	-0.001747	 0.077940
						CHANNELS 3 Zrotation Xrotation Yrotation
						End Site
						{
							OFFSET	 0.000000	-0.001747	 0.077940
						}
					}
				}
				JOINT RightShoulder
				{
					OFFSET	-0.080363	 0.000306	 0.159706
					CHANNELS 3 Zrotation Xrotation Yrotation
					JOINT RightArm
					{
						OFFSET	 0.000000	 0.000000	 0.164196
						CHANNELS 3 Zrotation Xrotation Yrotation
						JOINT RightForeArm
						{
							OFFSET	 0.000000	 0.000000	 0.365611
							CHANNELS 3 Zrotation Xrotation Yrotation
							JOINT RightHand
							{
								OFFSET	 0.000000	 0.000000	 0.360648
								CHANNELS 3 Zrotation Xrotation Yrotation
								JOINT RightHandIndex1
								{
									OFFSET	 0.000000	 0.000000	 0.069977
									CHANNELS 3 Zrotation Xrotation Yrotation
									JOINT RightHandIndex2
									{
										OFFSET	 0.000000	 0.000000	 0.052305
										CHANNELS 3 Zrotation Xrotation Yrotation
										JOINT RightHandIndex3
										{
											OFFSET	 0.009002	-0.000782	 0.042196
											CHANNELS 3 Zrotation Xrotation Yrotation
											End Site
											{
												OFFSET	 0.009002	-0.000782	 0.042196
											}
										}
									}
								}
							}
						}
					}
				}
			}
		}
	}
}
MOTION
Frames:    4
Frame Time: 0.03333334
-0.043189	 0.239170	 1.017666	 1.349598	 34.233370	-6.697990	-40.200870	-84.599710	 143.300900	 8.041167	-75.176450	 8.180096	-38.129550	 78.115070	 45.836720	-2.385832	 28.452790	-0.000001	 88.838620	-75.199420	-101.546100	-20.796340	-77.763300	-15.311360	 62.376020	 75.649620	-58.071850	 2.384659	 28.388700	-0.000001	-1.683808	 15.319550	 1.433726	-2.771201	 22.726370	 3.577649	-0.246968	-1.334585	 2.016357	-99.090000	 68.192700	 157.027200	 9.563246	-4.299918	-48.295360	-6.799085	 7.729803	-23.344400	-24.935530	-22.426260	-18.469080	-2.027600	 6.559038	 9.033609	-5.188889	 0.308190	 3.541030	-5.234859	 0.342567	 0.430617	 0.166185	 16.562980	-5.521839	 1.400603	-25.716630	-0.327811	 97.385700	 64.616590	-159.303200	-4.532294	 4.521615	 51.909930	-6.599419	 0.567295	 28.331250	 8.843959	-21.355620	 14.262800	 1.803333	 3.979147	-15.098590	 4.898592	 3.004813	-9.310344	 5.224449	 0.395017	 2.014677
-0.042815	 0.238760	 1.024438	 1.255366	 33.707550	-6.435134	-36.721470	-83.460970	 146.973600	 7.407738	-74.300900	 7.535824	-37.236410	 77.834790	 44.826630	-2.385832	 28.452790	-0.000001	 84.275540	-75.131830	-106.175000	-19.918450	-76.842540	-14.400710	 60.779690	 75.541890	-56.335090	 2.384659	 28.388700	-0.000001	-1.600496	 15.346870	 1.367634	-2.629052	 23.137260	 3.374434	-0.280196	-1.972934	 1.889648	-98.864130	 68.385490	 157.433300	 9.403432	-3.103668	-48.714460	-6.569161	 7.797039	-23.823770	-25.740970	-23.789070	-18.999420	-2.027600	 6.559038	 9.033609	-5.188889	 0.308190	 3.541030	-5.234859	 0.342567	 0.430617	-0.134483	 14.371420	-4.866095	 1.163005	-23.558180	-0.710280	 97.261150	 64.440610	-159.782800	-4.872455	 4.354926	 52.135730	-6.341985	 0.715928	 28.661310	 9.203719	-22.563670	 15.065310	 1.803333	 3.979147	-15.098590	 4.898592	 3.004813	-9.310344	 5.224449	 0.395017	 2.014677
-0.042338	 0.238359	 1.031677	 1.190052	 33.156170	-6.191213	-34.089990	-82.241220	 149.841700	 6.870052	-73.336130	 6.983673	-36.247340	 77.509280	 43.685340	-2.385832	 28.452790	-0.000001	 79.483430	-74.947520	-111.000500	-19.098940	-75.852100	-13.545270	 59.053260	 75.412310	-54.464830	 2.384659	 28.388700	-0.000001	-1.523403	 15.376470	 1.306764	-2.467158	 23.499920	 3.157274	-0.330906	-2.601524	 1.761326	-98.599330	 68.657190	 157.849500	 9.330317	-1.774924	-49.175410	-6.330036	 7.847857	-24.280260	-26.638650	-25.307310	-19.626610	-2.027600	 6.559038	 9.033609	-5.188889	 0.308190	 3.541030	-5.234859	 0.342567	 0.430617	-0.402967	 12.051250	-4.306757	 0.975218	-21.270760	-1.014833	 97.123600	 64.219960	-160.330600	-5.268113	 4.137225	 52.336150	-6.106745	 0.859250	 29.078670	 9.567148	-23.824110	 15.897420	 1.803333	 3.979147	-15.098590	 4.898592	 3.004813	-9.310344	 5.224449	 0.395017	 2.014677
-0.041700	 0.238025	 1.039298	 1.114093	 32.538560	-5.923560	-31.953490	-80.921100	 152.222600	 6.380388	-72.324910	 6.478868	-35.260700	 77.179730	 42.536220	-2.385832	 28.452790	-0.000001	 74.445090	-74.628190	-116.083100	-18.385370	-74.803460	-12.791640	 57.369090	 75.267960	-52.616380	 2.384659	 28.388700	-0.000001	-1.469914	 15.411850	 1.241906	-2.313205	 23.827780	 2.951083	-0.386494	-3.273894	 1.618388	-98.263680	 69.064450	 158.291900	 9.420793	-0.231072	-49.683170	-6.080781	 7.867153	-24.674330	-27.689150	-27.011660	-20.434690	-2.027600	 6.559038	 9.033609	-5.188889	 0.308190	 3.541030	-5.234859	 0.342567	 0.430617	-0.645567	 9.470478	-3.721124	 0.783492	-18.747660	-1.357831	 96.966820	 64.111390	-160.821100	-5.760562	 4.169203	 52.425400	-5.976810	 0.951103	 29.584180	 10.000480	-25.222660	 16.708410	 1.803333	 3.979147	-15.098590	 4.898592	 3.004813	-9.310344	 5.224449	 0.395017	 2.014677
